g object0
o object_0
g object1
o object_1
v -3 -0.2995002418756485 2.9850125312805176
v 3 -0.2995002418756485 2.9850125312805176
v 3 0.2995002418756485 -2.9850125312805176
v -3 0.2995002418756485 -2.9850125312805176
vn 0 0.9950041656628266 0.09983341281165609
vn 0 0.9950041656628266 0.09983341281165609
vn 0 0.9950041656628266 0.09983341281165609
vn 0 0.9950041656628266 0.09983341281165609
vt 0 1
vt 1 1
vt 1 0
vt 0 0
f 1/1/1 3/3/3 4/4/4
f 1/1/1 2/2/2 3/3/3
g object2
o object_2
g object3
o object_3
v -1 0.8951707631349564 1.0948375910520554
v -1 -1.0948375910520554 0.8951707631349564
v 1 -1.0948375910520554 0.8951707631349564
v 1 0.8951707631349564 1.0948375910520554
v -1 -0.8951707631349564 -1.0948375910520554
v -1 1.0948375910520554 -0.8951707631349564
v 1 1.0948375910520554 -0.8951707631349564
v 1 -0.8951707631349564 -1.0948375910520554
v 1 -1.0948375910520554 0.8951707631349564
v 1 -0.8951707631349564 -1.0948375910520554
v 1 1.0948375910520554 -0.8951707631349564
v 1 0.8951707631349564 1.0948375910520554
v -1 -0.8951707631349564 -1.0948375910520554
v -1 -1.0948375910520554 0.8951707631349564
v -1 0.8951707631349564 1.0948375910520554
v -1 1.0948375910520554 -0.8951707631349564
v 1 1.0948375910520554 -0.8951707631349564
v -1 1.0948375910520554 -0.8951707631349564
v -1 0.8951707631349564 1.0948375910520554
v 1 0.8951707631349564 1.0948375910520554
v -1 -0.8951707631349564 -1.0948375910520554
v 1 -0.8951707631349564 -1.0948375910520554
v 1 -1.0948375910520554 0.8951707631349564
v -1 -1.0948375910520554 0.8951707631349564
vn 0 -0.09983341281165609 0.9950041656628266
vn 0 -0.09983341281165609 0.9950041656628266
vn 0 -0.09983341281165609 0.9950041656628266
vn 0 -0.09983341281165609 0.9950041656628266
vn 0 0.09983341281165609 -0.9950041656628266
vn 0 0.09983341281165609 -0.9950041656628266
vn 0 0.09983341281165609 -0.9950041656628266
vn 0 0.09983341281165609 -0.9950041656628266
vn 1 0 0
vn 1 0 0
vn 1 0 0
vn 1 0 0
vn -1 0 0
vn -1 0 0
vn -1 0 0
vn -1 0 0
vn 0 0.9950041656628266 0.09983341281165609
vn 0 0.9950041656628266 0.09983341281165609
vn 0 0.9950041656628266 0.09983341281165609
vn 0 0.9950041656628266 0.09983341281165609
vn 0 -0.9950041656628266 -0.09983341281165609
vn 0 -0.9950041656628266 -0.09983341281165609
vn 0 -0.9950041656628266 -0.09983341281165609
vn 0 -0.9950041656628266 -0.09983341281165609
vt 0 0
vt 0 1
vt 1 1
vt 1 0
vt 0 0
vt 0 1
vt 1 1
vt 1 0
vt 0 0
vt 0 1
vt 1 1
vt 1 0
vt 0 0
vt 0 1
vt 1 1
vt 1 0
vt 0 0
vt 0 1
vt 1 1
vt 1 0
vt 0 0
vt 0 1
vt 1 1
vt 1 0
f 28/28/28 25/25/25 27/27/27
f 25/25/25 26/26/26 27/27/27
f 24/24/24 21/21/21 23/23/23
f 21/21/21 22/22/22 23/23/23
f 20/20/20 17/17/17 19/19/19
f 17/17/17 18/18/18 19/19/19
f 16/16/16 13/13/13 15/15/15
f 13/13/13 14/14/14 15/15/15
f 12/12/12 9/9/9 11/11/11
f 9/9/9 10/10/10 11/11/11
f 8/8/8 5/5/5 7/7/7
f 5/5/5 6/6/6 7/7/7
