{"asset":{"version":"2.0","generator":"THREE.GLTFExporter r169"},"scenes":[{"nodes":[0]}],"scene":0,"nodes":[{"mesh":0}],"bufferViews":[{"buffer":0,"byteOffset":0,"byteLength":96480,"target":34962,"byteStride":12},{"buffer":0,"byteOffset":96480,"byteLength":16080,"target":34963}],"buffers":[{"byteLength":112560,"uri":"data:application/octet-stream;base64,"}],"accessors":[{"bufferView":0,"componentType":5126,"count":8040,"max":[11.712005615234375,14.4420166015625,2.531841278076172],"min":[-70.68799591064453,-4.557983875274658,-43.868160247802734],"type":"VEC3"},{"bufferView":1,"componentType":5123,"count":8040,"max":[8039],"min":[0],"type":"SCALAR"}],"materials":[{"pbrMetallicRoughness":{"metallicFactor":0,"roughnessFactor":1}}],"meshes":[{"primitives":[{"mode":4,"attributes":{"POSITION":0},"indices":1,"material":0}]}]}