v 0.451 0.309 0.268
v 0.451 -0.309 0.268
v -0.451 -0.309 0.268
v -0.376 -0.309 -0.268
v 0.451 -0.309 -0.268
v 0.451 0.257 -0.268
v 0.451 0.293 0.107
v 0.451 -0.309 0.268
v 0.451 0.309 0.268
v 0.451 0.257 -0.268
v 0.451 -0.309 -0.268
v 0.451 -0.309 0.268
v 0.451 0.257 -0.268
v 0.451 -0.309 0.268
v 0.451 0.293 0.107
v -0.451 -0.309 0.268
v 0.451 -0.309 0.268
v -0.396 -0.309 -0.120
v -0.396 -0.309 -0.120
v 0.451 -0.309 0.268
v 0.451 -0.309 -0.268
v -0.396 -0.309 -0.120
v 0.451 -0.309 -0.268
v -0.376 -0.309 -0.268
v 0.451 0.309 0.268
v -0.451 -0.309 0.268
v -0.376 -0.309 -0.268
v 0.451 0.309 0.268
v -0.376 -0.309 -0.268
v 0.451 0.257 -0.268
v -0.585 1.000 0.268
v 0.585 1.000 0.268
v -0.585 -1.000 0.268
v 0.585 1.000 0.268
v 0.585 -0.382 0.268
v -0.317 -1.000 0.268
v 0.585 1.000 0.268
v -0.317 -1.000 0.268
v -0.585 -1.000 0.268
v -0.585 1.000 -0.268
v -0.585 -1.000 -0.268
v 0.585 1.000 -0.268
v 0.585 1.000 -0.268
v -0.585 -1.000 -0.268
v -0.242 -1.000 -0.268
v 0.585 1.000 -0.268
v -0.242 -1.000 -0.268
v 0.585 -0.434 -0.268
v -0.585 1.000 0.268
v -0.585 -1.000 0.268
v -0.585 1.000 -0.268
v -0.585 1.000 -0.268
v -0.585 -1.000 0.268
v -0.585 -1.000 -0.268
v 0.585 1.000 0.268
v 0.585 1.000 -0.268
v 0.585 -0.398 0.107
v 0.585 1.000 0.268
v 0.585 -0.398 0.107
v 0.585 -0.382 0.268
v 0.585 1.000 -0.268
v 0.585 -0.434 -0.268
v 0.585 -0.398 0.107
v -0.585 1.000 0.268
v -0.585 1.000 -0.268
v 0.585 1.000 0.268
v -0.585 1.000 -0.268
v 0.585 1.000 -0.268
v 0.585 1.000 0.268
v -0.585 -1.000 0.268
v -0.317 -1.000 0.268
v -0.262 -1.000 -0.120
v -0.585 -1.000 0.268
v -0.262 -1.000 -0.120
v -0.585 -1.000 -0.268
v -0.585 -1.000 -0.268
v -0.262 -1.000 -0.120
v -0.242 -1.000 -0.268
v -0.317 -1.000 0.268
v 0.585 -0.382 0.268
v 0.585 -0.434 -0.268
v -0.317 -1.000 0.268
v 0.585 -0.434 -0.268
v -0.242 -1.000 -0.268
vn -0.000 0.000 1.000
vn -0.000 0.000 1.000
vn -0.000 0.000 1.000
vn -0.000 -0.000 -1.000
vn -0.000 -0.000 -1.000
vn -0.000 -0.000 -1.000
vn 1.000 -0.000 -0.000
vn 1.000 -0.000 -0.000
vn 1.000 -0.000 -0.000
vn 1.000 -0.000 -0.000
vn 1.000 -0.000 -0.000
vn 1.000 -0.000 -0.000
vn 1.000 -0.000 -0.000
vn 1.000 -0.000 -0.000
vn 1.000 -0.000 -0.000
vn 0.000 -1.000 -0.000
vn 0.000 -1.000 -0.000
vn 0.000 -1.000 -0.000
vn 0.000 -1.000 -0.000
vn 0.000 -1.000 -0.000
vn 0.000 -1.000 -0.000
vn -0.000 -1.000 -0.000
vn -0.000 -1.000 -0.000
vn -0.000 -1.000 -0.000
vn -0.563 0.823 -0.079
vn -0.563 0.823 -0.079
vn -0.563 0.823 -0.079
vn -0.563 0.823 -0.079
vn -0.563 0.823 -0.079
vn -0.563 0.823 -0.079
vn -0.000 -0.000 1.000
vn -0.000 -0.000 1.000
vn -0.000 -0.000 1.000
vn -0.000 0.000 1.000
vn -0.000 0.000 1.000
vn -0.000 0.000 1.000
vn -0.000 -0.000 1.000
vn -0.000 -0.000 1.000
vn -0.000 -0.000 1.000
vn 0.000 -0.000 -1.000
vn 0.000 -0.000 -1.000
vn 0.000 -0.000 -1.000
vn -0.000 -0.000 -1.000
vn -0.000 -0.000 -1.000
vn -0.000 -0.000 -1.000
vn -0.000 -0.000 -1.000
vn -0.000 -0.000 -1.000
vn -0.000 -0.000 -1.000
vn -1.000 -0.000 -0.000
vn -1.000 -0.000 -0.000
vn -1.000 -0.000 -0.000
vn -1.000 -0.000 -0.000
vn -1.000 -0.000 -0.000
vn -1.000 -0.000 -0.000
vn 1.000 -0.000 0.000
vn 1.000 -0.000 0.000
vn 1.000 -0.000 0.000
vn 1.000 0.000 -0.000
vn 1.000 0.000 -0.000
vn 1.000 0.000 -0.000
vn 1.000 -0.000 -0.000
vn 1.000 -0.000 -0.000
vn 1.000 -0.000 -0.000
vn -0.000 1.000 -0.000
vn -0.000 1.000 -0.000
vn -0.000 1.000 -0.000
vn -0.000 1.000 -0.000
vn -0.000 1.000 -0.000
vn -0.000 1.000 -0.000
vn 0.000 -1.000 -0.000
vn 0.000 -1.000 -0.000
vn 0.000 -1.000 -0.000
vn -0.000 -1.000 -0.000
vn -0.000 -1.000 -0.000
vn -0.000 -1.000 -0.000
vn -0.000 -1.000 -0.000
vn -0.000 -1.000 -0.000
vn -0.000 -1.000 -0.000
vn 0.563 -0.823 0.079
vn 0.563 -0.823 0.079
vn 0.563 -0.823 0.079
vn 0.563 -0.823 0.079
vn 0.563 -0.823 0.079
vn 0.563 -0.823 0.079
vt 0.0 0.000
vt 0.0 0.000
vt 0.0 0.000
vt 0.0 0.000
vt 0.0 0.000
vt 0.0 0.000
vt 0.0 0.000
vt 0.0 0.000
vt 0.0 0.000
vt 0.0 0.000
vt 0.0 0.000
vt 0.0 0.000
vt 0.0 0.000
vt 0.0 0.000
vt 0.0 0.000
vt 0.0 0.000
vt 0.0 0.000
vt 0.0 0.000
vt 0.0 0.000
vt 0.0 0.000
vt 0.0 0.000
vt 0.0 0.000
vt 0.0 0.000
vt 0.0 0.000
vt 0.0 0.000
vt 0.0 0.000
vt 0.0 0.000
vt 0.0 0.000
vt 0.0 0.000
vt 0.0 0.000
vt 0.0 0.500
vt 0.0 0.500
vt 0.0 0.500
vt 0.0 0.500
vt 0.0 0.500
vt 0.0 0.500
vt 0.0 0.500
vt 0.0 0.500
vt 0.0 0.500
vt 0.0 0.500
vt 0.0 0.500
vt 0.0 0.500
vt 0.0 0.500
vt 0.0 0.500
vt 0.0 0.500
vt 0.0 0.500
vt 0.0 0.500
vt 0.0 0.500
vt 0.0 0.500
vt 0.0 0.500
vt 0.0 0.500
vt 0.0 0.500
vt 0.0 0.500
vt 0.0 0.500
vt 0.0 0.500
vt 0.0 0.500
vt 0.0 0.500
vt 0.0 0.500
vt 0.0 0.500
vt 0.0 0.500
vt 0.0 0.500
vt 0.0 0.500
vt 0.0 0.500
vt 0.0 0.500
vt 0.0 0.500
vt 0.0 0.500
vt 0.0 0.500
vt 0.0 0.500
vt 0.0 0.500
vt 0.0 0.500
vt 0.0 0.500
vt 0.0 0.500
vt 0.0 0.500
vt 0.0 0.500
vt 0.0 0.500
vt 0.0 0.500
vt 0.0 0.500
vt 0.0 0.500
vt 0.0 0.500
vt 0.0 0.500
vt 0.0 0.500
vt 0.0 0.500
vt 0.0 0.500
vt 0.0 0.500
f 3/3/3 2/2/2 1/1/1
f 6/6/6 5/5/5 4/4/4
f 9/9/9 8/8/8 7/7/7
f 12/12/12 11/11/11 10/10/10
f 15/15/15 14/14/14 13/13/13
f 18/18/18 17/17/17 16/16/16
f 21/21/21 20/20/20 19/19/19
f 24/24/24 23/23/23 22/22/22
f 27/27/27 26/26/26 25/25/25
f 30/30/30 29/29/29 28/28/28
f 33/33/33 32/32/32 31/31/31
f 36/36/36 35/35/35 34/34/34
f 39/39/39 38/38/38 37/37/37
f 42/42/42 41/41/41 40/40/40
f 45/45/45 44/44/44 43/43/43
f 48/48/48 47/47/47 46/46/46
f 51/51/51 50/50/50 49/49/49
f 54/54/54 53/53/53 52/52/52
f 57/57/57 56/56/56 55/55/55
f 60/60/60 59/59/59 58/58/58
f 63/63/63 62/62/62 61/61/61
f 66/66/66 65/65/65 64/64/64
f 69/69/69 68/68/68 67/67/67
f 72/72/72 71/71/71 70/70/70
f 75/75/75 74/74/74 73/73/73
f 78/78/78 77/77/77 76/76/76
f 81/81/81 80/80/80 79/79/79
f 84/84/84 83/83/83 82/82/82
