{
  "accessors": [
    {
      "bufferView": 2,
      "componentType": 5126,
      "count": 320,
      "max": [
        0.65807998180389404,
        0.61912000179290771,
        0.54291999340057373
      ],
      "min": [
        -0.66413998603820801,
        -0.77745997905731201,
        -0.29128000140190125
      ],
      "type": "VEC3"
    },
    {
      "bufferView": 2,
      "byteOffset": 3840,
      "componentType": 5126,
      "count": 320,
      "max": [
        0.99571627378463745,
        0.99719244241714478,
        0.61128097772598267
      ],
      "min": [
        -0.99993997812271118,
        -0.98812425136566162,
        -0.54836547374725342
      ],
      "type": "VEC3"
    },
    {
      "bufferView": 1,
      "componentType": 5126,
      "count": 320,
      "max": [
        1,
        1
      ],
      "min": [
        0,
        0.14402000606060028
      ],
      "type": "VEC2"
    },
    {
      "bufferView": 0,
      "componentType": 5125,
      "count": 1152,
      "max": [
        319
      ],
      "min": [
        0
      ],
      "type": "SCALAR"
    },
    {
      "bufferView": 2,
      "byteOffset": 7680,
      "componentType": 5126,
      "count": 270,
      "max": [
        0.43095999956130981,
        3.2255899906158447,
        0.5935400128364563
      ],
      "min": [
        -0.40571001172065735,
        -0.30375999212265015,
        -0.47027000784873962
      ],
      "type": "VEC3"
    },
    {
      "bufferView": 2,
      "byteOffset": 10920,
      "componentType": 5126,
      "count": 270,
      "max": [
        1,
        1,
        1
      ],
      "min": [
        -1,
        -1,
        -1
      ],
      "type": "VEC3"
    },
    {
      "bufferView": 1,
      "byteOffset": 2560,
      "componentType": 5126,
      "count": 270,
      "max": [
        0.84330999851226807,
        0.94437998533248901
      ],
      "min": [
        0.0065799998119473457,
        0.24582000076770782
      ],
      "type": "VEC2"
    },
    {
      "bufferView": 1,
      "byteOffset": 4720,
      "componentType": 5126,
      "count": 270,
      "max": [
        0.84330999851226807,
        0.94437998533248901
      ],
      "min": [
        0.0065799998119473457,
        0.24582000076770782
      ],
      "type": "VEC2"
    },
    {
      "bufferView": 0,
      "byteOffset": 4608,
      "componentType": 5125,
      "count": 636,
      "max": [
        269
      ],
      "min": [
        0
      ],
      "type": "SCALAR"
    },
    {
      "bufferView": 2,
      "byteOffset": 14160,
      "componentType": 5126,
      "count": 3103,
      "max": [
        0.34018000960350037,
        1.944159984588623,
        1.9439100027084351
      ],
      "min": [
        -0.13578000664710999,
        -1.9431999921798706,
        -1.9440000057220459
      ],
      "type": "VEC3"
    },
    {
      "bufferView": 2,
      "byteOffset": 51396,
      "componentType": 5126,
      "count": 3103,
      "max": [
        0.99999803304672241,
        0.99212068319320679,
        0.99283766746520996
      ],
      "min": [
        -0.99999803304672241,
        -0.99316757917404175,
        -0.99301367998123169
      ],
      "type": "VEC3"
    },
    {
      "bufferView": 1,
      "byteOffset": 6880,
      "componentType": 5126,
      "count": 3103,
      "max": [
        0.99589002132415771,
        0.99532997608184814
      ],
      "min": [
        0.0041499999351799488,
        0.22900000214576721
      ],
      "type": "VEC2"
    },
    {
      "bufferView": 1,
      "byteOffset": 31704,
      "componentType": 5126,
      "count": 3103,
      "max": [
        0.99589002132415771,
        0.99532997608184814
      ],
      "min": [
        0.0041499999351799488,
        0.22900000214576721
      ],
      "type": "VEC2"
    },
    {
      "bufferView": 0,
      "byteOffset": 7152,
      "componentType": 5125,
      "count": 12924,
      "max": [
        3102
      ],
      "min": [
        0
      ],
      "type": "SCALAR"
    },
    {
      "bufferView": 2,
      "byteOffset": 88632,
      "componentType": 5126,
      "count": 1848,
      "max": [
        1.6062500476837158,
        1.7786300182342529,
        9.7239398956298828
      ],
      "min": [
        -1.6062500476837158,
        -1.7746200561523438,
        -0.0012799999676644802
      ],
      "type": "VEC3"
    },
    {
      "bufferView": 2,
      "byteOffset": 110808,
      "componentType": 5126,
      "count": 1848,
      "max": [
        1,
        1,
        1
      ],
      "min": [
        -1,
        -1,
        -1
      ],
      "type": "VEC3"
    },
    {
      "bufferView": 1,
      "byteOffset": 56528,
      "componentType": 5126,
      "count": 1848,
      "max": [
        0.99545997381210327,
        0.96021997928619385
      ],
      "min": [
        0.0026000000070780516,
        0.0006399999838322401
      ],
      "type": "VEC2"
    },
    {
      "bufferView": 1,
      "byteOffset": 71312,
      "componentType": 5126,
      "count": 1848,
      "max": [
        0.99545997381210327,
        0.96021997928619385
      ],
      "min": [
        0.0026000000070780516,
        0.0006399999838322401
      ],
      "type": "VEC2"
    },
    {
      "bufferView": 0,
      "byteOffset": 58848,
      "componentType": 5125,
      "count": 2796,
      "max": [
        1847
      ],
      "min": [
        0
      ],
      "type": "SCALAR"
    },
    {
      "bufferView": 2,
      "byteOffset": 132984,
      "componentType": 5126,
      "count": 320,
      "max": [
        0.65807998180389404,
        0.61912000179290771,
        0.54291999340057373
      ],
      "min": [
        -0.66413998603820801,
        -0.77745997905731201,
        -0.29128000140190125
      ],
      "type": "VEC3"
    },
    {
      "bufferView": 2,
      "byteOffset": 136824,
      "componentType": 5126,
      "count": 320,
      "max": [
        0.99571627378463745,
        0.99719244241714478,
        0.61128097772598267
      ],
      "min": [
        -0.99993997812271118,
        -0.98812425136566162,
        -0.54836547374725342
      ],
      "type": "VEC3"
    },
    {
      "bufferView": 1,
      "byteOffset": 86096,
      "componentType": 5126,
      "count": 320,
      "max": [
        1,
        1
      ],
      "min": [
        0,
        0.14402000606060028
      ],
      "type": "VEC2"
    },
    {
      "bufferView": 0,
      "byteOffset": 70032,
      "componentType": 5125,
      "count": 1152,
      "max": [
        319
      ],
      "min": [
        0
      ],
      "type": "SCALAR"
    },
    {
      "bufferView": 2,
      "byteOffset": 140664,
      "componentType": 5126,
      "count": 320,
      "max": [
        0.65807998180389404,
        0.61912000179290771,
        0.54291999340057373
      ],
      "min": [
        -0.66413998603820801,
        -0.77745997905731201,
        -0.29128000140190125
      ],
      "type": "VEC3"
    },
    {
      "bufferView": 2,
      "byteOffset": 144504,
      "componentType": 5126,
      "count": 320,
      "max": [
        0.99571627378463745,
        0.99719244241714478,
        0.61128097772598267
      ],
      "min": [
        -0.99993997812271118,
        -0.98812425136566162,
        -0.54836547374725342
      ],
      "type": "VEC3"
    },
    {
      "bufferView": 1,
      "byteOffset": 88656,
      "componentType": 5126,
      "count": 320,
      "max": [
        1,
        1
      ],
      "min": [
        0,
        0.14402000606060028
      ],
      "type": "VEC2"
    },
    {
      "bufferView": 0,
      "byteOffset": 74640,
      "componentType": 5125,
      "count": 1152,
      "max": [
        319
      ],
      "min": [
        0
      ],
      "type": "SCALAR"
    },
    {
      "bufferView": 2,
      "byteOffset": 148344,
      "componentType": 5126,
      "count": 320,
      "max": [
        0.65807998180389404,
        0.61912000179290771,
        0.54291999340057373
      ],
      "min": [
        -0.66413998603820801,
        -0.77745997905731201,
        -0.29128000140190125
      ],
      "type": "VEC3"
    },
    {
      "bufferView": 2,
      "byteOffset": 152184,
      "componentType": 5126,
      "count": 320,
      "max": [
        0.99571627378463745,
        0.99719244241714478,
        0.61128097772598267
      ],
      "min": [
        -0.99993997812271118,
        -0.98812425136566162,
        -0.54836547374725342
      ],
      "type": "VEC3"
    },
    {
      "bufferView": 1,
      "byteOffset": 91216,
      "componentType": 5126,
      "count": 320,
      "max": [
        1,
        1
      ],
      "min": [
        0,
        0.14402000606060028
      ],
      "type": "VEC2"
    },
    {
      "bufferView": 0,
      "byteOffset": 79248,
      "componentType": 5125,
      "count": 1152,
      "max": [
        319
      ],
      "min": [
        0
      ],
      "type": "SCALAR"
    },
    {
      "bufferView": 3,
      "componentType": 5126,
      "count": 2,
      "max": [
        5.2083301544189453
      ],
      "min": [
        0.041669998317956924
      ],
      "type": "SCALAR"
    },
    {
      "bufferView": 4,
      "componentType": 5126,
      "count": 2,
      "max": [
        0.0047399997711181641,
        0.13239000737667084,
        9.7045402526855469
      ],
      "min": [
        0.0047399997711181641,
        0.13239000737667084,
        9.7045402526855469
      ],
      "type": "VEC3"
    },
    {
      "bufferView": 3,
      "byteOffset": 8,
      "componentType": 5126,
      "count": 125,
      "max": [
        5.2083301544189453
      ],
      "min": [
        0.041669998317956924
      ],
      "type": "SCALAR"
    },
    {
      "bufferView": 5,
      "componentType": 5126,
      "count": 125,
      "max": [
        -0,
        0,
        0.14975999295711517,
        1
      ],
      "min": [
        -0,
        0,
        -0.19216999411582947,
        0.98138999938964844
      ],
      "type": "VEC4"
    },
    {
      "bufferView": 3,
      "byteOffset": 508,
      "componentType": 5126,
      "count": 2,
      "max": [
        5.2083301544189453
      ],
      "min": [
        0.041669998317956924
      ],
      "type": "SCALAR"
    },
    {
      "bufferView": 4,
      "byteOffset": 24,
      "componentType": 5126,
      "count": 2,
      "max": [
        1,
        1,
        1
      ],
      "min": [
        1,
        1,
        1
      ],
      "type": "VEC3"
    },
    {
      "bufferView": 3,
      "byteOffset": 516,
      "componentType": 5126,
      "count": 2,
      "max": [
        5.2083301544189453
      ],
      "min": [
        0.041669998317956924
      ],
      "type": "SCALAR"
    },
    {
      "bufferView": 4,
      "byteOffset": 48,
      "componentType": 5126,
      "count": 2,
      "max": [
        0.50893998146057129,
        -0.063359998166561127,
        0.16979999840259552
      ],
      "min": [
        0.50893998146057129,
        -0.063359998166561127,
        0.16979999840259552
      ],
      "type": "VEC3"
    },
    {
      "bufferView": 3,
      "byteOffset": 524,
      "componentType": 5126,
      "count": 125,
      "max": [
        5.2083301544189453
      ],
      "min": [
        0.041669998317956924
      ],
      "type": "SCALAR"
    },
    {
      "bufferView": 5,
      "byteOffset": 2000,
      "componentType": 5126,
      "count": 125,
      "max": [
        0.99992001056671143,
        -0,
        -0,
        1
      ],
      "min": [
        -0.99992001056671143,
        -0,
        -0,
        0.012570000253617764
      ],
      "type": "VEC4"
    },
    {
      "bufferView": 3,
      "byteOffset": 1024,
      "componentType": 5126,
      "count": 2,
      "max": [
        5.2083301544189453
      ],
      "min": [
        0.041669998317956924
      ],
      "type": "SCALAR"
    },
    {
      "bufferView": 4,
      "byteOffset": 72,
      "componentType": 5126,
      "count": 2,
      "max": [
        1,
        1,
        1
      ],
      "min": [
        1,
        1,
        1
      ],
      "type": "VEC3"
    }
  ],
  "animations": [
    {
      "channels": [
        {
          "sampler": 0,
          "target": {
            "node": 5,
            "path": "translation"
          }
        },
        {
          "sampler": 1,
          "target": {
            "node": 5,
            "path": "rotation"
          }
        },
        {
          "sampler": 2,
          "target": {
            "node": 5,
            "path": "scale"
          }
        },
        {
          "sampler": 3,
          "target": {
            "node": 7,
            "path": "translation"
          }
        },
        {
          "sampler": 4,
          "target": {
            "node": 7,
            "path": "rotation"
          }
        },
        {
          "sampler": 5,
          "target": {
            "node": 7,
            "path": "scale"
          }
        }
      ],
      "name": "Take 01",
      "samplers": [
        {
          "input": 31,
          "interpolation": "LINEAR",
          "output": 32
        },
        {
          "input": 33,
          "interpolation": "LINEAR",
          "output": 34
        },
        {
          "input": 35,
          "interpolation": "LINEAR",
          "output": 36
        },
        {
          "input": 37,
          "interpolation": "LINEAR",
          "output": 38
        },
        {
          "input": 39,
          "interpolation": "LINEAR",
          "output": 40
        },
        {
          "input": 41,
          "interpolation": "LINEAR",
          "output": 42
        }
      ]
    }
  ],
  "asset": {
    "extras": {
      "author": "yanix (https://sketchfab.com/yanix)",
      "license": "CC-BY-4.0 (http://creativecommons.org/licenses/by/4.0/)",
      "source": "https://sketchfab.com/3d-models/windmill-747c168a3adc47528e8cd6483f0dabba",
      "title": "Windmill"
    },
    "generator": "Sketchfab-8.23.0",
    "version": "2.0"
  },
  "bufferViews": [
    {
      "buffer": 0,
      "byteLength": 83856,
      "byteOffset": 0,
      "name": "floatBufferViews",
      "target": 34963
    },
    {
      "buffer": 0,
      "byteLength": 93776,
      "byteOffset": 83856,
      "byteStride": 8,
      "name": "floatBufferViews",
      "target": 34962
    },
    {
      "buffer": 0,
      "byteLength": 156024,
      "byteOffset": 177632,
      "byteStride": 12,
      "name": "floatBufferViews",
      "target": 34962
    },
    {
      "buffer": 0,
      "byteLength": 1032,
      "byteOffset": 333656,
      "name": "floatBufferViews"
    },
    {
      "buffer": 0,
      "byteLength": 96,
      "byteOffset": 334688,
      "byteStride": 12,
      "name": "floatBufferViews"
    },
    {
      "buffer": 0,
      "byteLength": 4000,
      "byteOffset": 334784,
      "byteStride": 16,
      "name": "floatBufferViews"
    }
  ],
  "buffers": [
    {
      "byteLength": 338784,
      "uri": "scene.bin"
    }
  ],
  "images": [
    {
      "uri": "textures/perekatipole_baseColor.png"
    },
    {
      "uri": "textures/windmill_baseColor.jpeg"
    }
  ],
  "materials": [
    {
      "alphaMode": "BLEND",
      "doubleSided": true,
      "emissiveFactor": [
        0,
        0,
        0
      ],
      "name": "perekatipole",
      "pbrMetallicRoughness": {
        "baseColorFactor": [
          0.54000000000000004,
          0.54000000000000004,
          0.54000000000000004,
          1
        ],
        "baseColorTexture": {
          "index": 0,
          "texCoord": 0
        },
        "metallicFactor": 0,
        "roughnessFactor": 0.59999999999999998
      }
    },
    {
      "doubleSided": true,
      "emissiveFactor": [
        0,
        0,
        0
      ],
      "name": "windmill",
      "pbrMetallicRoughness": {
        "baseColorFactor": [
          1,
          1,
          1,
          1
        ],
        "baseColorTexture": {
          "index": 1,
          "texCoord": 0
        },
        "metallicFactor": 0,
        "roughnessFactor": 0.59999999999999998
      }
    }
  ],
  "meshes": [
    {
      "name": "perekatipole.001_0",
      "primitives": [
        {
          "attributes": {
            "NORMAL": 1,
            "POSITION": 0,
            "TEXCOORD_0": 2
          },
          "indices": 3,
          "material": 0,
          "mode": 4
        }
      ]
    },
    {
      "name": "Cube.003_0",
      "primitives": [
        {
          "attributes": {
            "NORMAL": 5,
            "POSITION": 4,
            "TEXCOORD_0": 6,
            "TEXCOORD_1": 7
          },
          "indices": 8,
          "material": 1,
          "mode": 4
        }
      ]
    },
    {
      "name": "Cube.004_0",
      "primitives": [
        {
          "attributes": {
            "NORMAL": 10,
            "POSITION": 9,
            "TEXCOORD_0": 11,
            "TEXCOORD_1": 12
          },
          "indices": 13,
          "material": 1,
          "mode": 4
        }
      ]
    },
    {
      "name": "Cube.005_0",
      "primitives": [
        {
          "attributes": {
            "NORMAL": 15,
            "POSITION": 14,
            "TEXCOORD_0": 16,
            "TEXCOORD_1": 17
          },
          "indices": 18,
          "material": 1,
          "mode": 4
        }
      ]
    },
    {
      "name": "perekatipole.000_0",
      "primitives": [
        {
          "attributes": {
            "NORMAL": 20,
            "POSITION": 19,
            "TEXCOORD_0": 21
          },
          "indices": 22,
          "material": 0,
          "mode": 4
        }
      ]
    },
    {
      "name": "perekatipole.002_0",
      "primitives": [
        {
          "attributes": {
            "NORMAL": 24,
            "POSITION": 23,
            "TEXCOORD_0": 25
          },
          "indices": 26,
          "material": 0,
          "mode": 4
        }
      ]
    },
    {
      "name": "perekatipole.003_0",
      "primitives": [
        {
          "attributes": {
            "NORMAL": 28,
            "POSITION": 27,
            "TEXCOORD_0": 29
          },
          "indices": 30,
          "material": 0,
          "mode": 4
        }
      ]
    }
  ],
  "nodes": [
    {
      "children": [
        1
      ],
      "name": "RootNode (gltf orientation matrix)",
      "rotation": [
        -0.70710678118654746,
        -0,
        -0,
        0.70710678118654757
      ]
    },
    {
      "children": [
        2
      ],
      "matrix": [
        0.26687783002853394,
        0,
        0,
        0,
        0,
        0.26687783002853394,
        0,
        0,
        0,
        0,
        0.26687783002853394,
        0,
        0,
        0,
        0,
        1
      ],
      "name": "RootNode (model correction matrix)"
    },
    {
      "children": [
        3,
        5,
        9,
        11,
        13,
        15
      ],
      "name": "Root"
    },
    {
      "children": [
        4
      ],
      "matrix": [
        1.4356099999999998,
        0,
        0,
        0,
        0,
        1.4356099999999998,
        0,
        0,
        0,
        0,
        1.4356099999999998,
        0,
        1.6137899999999998,
        -2.0910499999999996,
        0.25803999999999999,
        1
      ],
      "name": "perekatipole.001"
    },
    {
      "mesh": 0,
      "name": "perekatipole.001_0"
    },
    {
      "children": [
        6,
        7
      ],
      "name": "Cube.003",
      "rotation": [
        -0,
        0,
        0.04233015701174736,
        0.99910372495651245
      ],
      "translation": [
        0.0047399997711181641,
        0.13239000737667084,
        9.7045402526855469
      ]
    },
    {
      "mesh": 1,
      "name": "Cube.003_0"
    },
    {
      "children": [
        8
      ],
      "name": "Cube.004",
      "rotation": [
        0.98668563365936279,
        -0,
        0,
        0.16263929009437561
      ],
      "translation": [
        0.51367998123168945,
        0.069030001759529114,
        9.8743400573730469
      ]
    },
    {
      "mesh": 2,
      "name": "Cube.004_0"
    },
    {
      "children": [
        10
      ],
      "matrix": [
        1,
        0,
        0,
        0,
        0,
        1,
        0,
        0,
        0,
        0,
        1,
        0,
        -0.0021600000000000005,
        0.12967999999999999,
        0,
        1
      ],
      "name": "Cube.005"
    },
    {
      "mesh": 3,
      "name": "Cube.005_0"
    },
    {
      "children": [
        12
      ],
      "matrix": [
        0.63140000000000007,
        -1.3416399999999999,
        0,
        0,
        1.3416399999999999,
        0.63140000000000007,
        0,
        0,
        0,
        0,
        1.4827899999999998,
        0,
        1.9168699999999999,
        2.5116599999999996,
        0.25803999999999999,
        1
      ],
      "name": "perekatipole.000"
    },
    {
      "mesh": 4,
      "name": "perekatipole.000_0"
    },
    {
      "children": [
        14
      ],
      "matrix": [
        1.06345,
        0.14839000000000002,
        0,
        0,
        -0.14839000000000002,
        1.06345,
        0,
        0,
        0,
        0,
        1.07375,
        0,
        0.85980000000000012,
        2.7665300000000004,
        0.25803999999999999,
        1
      ],
      "name": "perekatipole.002"
    },
    {
      "mesh": 5,
      "name": "perekatipole.002_0"
    },
    {
      "children": [
        16
      ],
      "matrix": [
        0.63140000000000007,
        -1.3416399999999999,
        0,
        0,
        1.3416399999999999,
        0.63140000000000007,
        0,
        0,
        0,
        0,
        1.4827899999999998,
        0,
        -1.8880400000000002,
        0.94357999999999997,
        0.25803999999999999,
        1
      ],
      "name": "perekatipole.003"
    },
    {
      "mesh": 6,
      "name": "perekatipole.003_0"
    }
  ],
  "samplers": [
    {
      "magFilter": 9729,
      "minFilter": 9987,
      "wrapS": 10497,
      "wrapT": 10497
    }
  ],
  "scene": 0,
  "scenes": [
    {
      "name": "OSG_Scene",
      "nodes": [
        0
      ]
    }
  ],
  "textures": [
    {
      "sampler": 0,
      "source": 0
    },
    {
      "sampler": 0,
      "source": 1
    }
  ]
}

