{
  "accessors": [
    {
      "bufferView": 2,
      "componentType": 5126,
      "count": 1376,
      "max": [
        0.31055501103401184,
        0.11315400153398514,
        1
      ],
      "min": [
        -0.31053701043128967,
        -0.16345299780368805,
        -0.96644002199172974
      ],
      "type": "VEC3"
    },
    {
      "bufferView": 2,
      "byteOffset": 16512,
      "componentType": 5126,
      "count": 1376,
      "max": [
        1,
        1,
        1
      ],
      "min": [
        -1,
        -1,
        -1
      ],
      "type": "VEC3"
    },
    {
      "bufferView": 3,
      "componentType": 5126,
      "count": 1376,
      "max": [
        1,
        0.99999886751174927,
        0.99999910593032837,
        1
      ],
      "min": [
        -0.99999988079071045,
        -1,
        -0.99998772144317627,
        -1
      ],
      "type": "VEC4"
    },
    {
      "bufferView": 1,
      "componentType": 5126,
      "count": 1376,
      "max": [
        0.98861199617385864,
        0.98769301176071167
      ],
      "min": [
        0.54492300748825073,
        0.023713599890470505
      ],
      "type": "VEC2"
    },
    {
      "bufferView": 0,
      "componentType": 5125,
      "count": 4452,
      "max": [
        1375
      ],
      "min": [
        0
      ],
      "type": "SCALAR"
    },
    {
      "bufferView": 2,
      "byteOffset": 33024,
      "componentType": 5126,
      "count": 871,
      "max": [
        0.44239398837089539,
        0.13521699607372284,
        0.973347008228302
      ],
      "min": [
        -0.44239398837089539,
        -0.16413600742816925,
        -1
      ],
      "type": "VEC3"
    },
    {
      "bufferView": 2,
      "byteOffset": 43476,
      "componentType": 5126,
      "count": 871,
      "max": [
        1,
        1,
        1
      ],
      "min": [
        -1,
        -1,
        -1
      ],
      "type": "VEC3"
    },
    {
      "bufferView": 3,
      "byteOffset": 22016,
      "componentType": 5126,
      "count": 871,
      "max": [
        0.99594944715499878,
        0.99999886751174927,
        0.99999994039535522,
        1
      ],
      "min": [
        -0.9999995231628418,
        -0.99999892711639404,
        -0.99999934434890747,
        -1
      ],
      "type": "VEC4"
    },
    {
      "bufferView": 1,
      "byteOffset": 11008,
      "componentType": 5126,
      "count": 871,
      "max": [
        0.80140697956085205,
        0.41450700163841248
      ],
      "min": [
        0.0050951400771737099,
        0.0098005495965480804
      ],
      "type": "VEC2"
    },
    {
      "bufferView": 0,
      "byteOffset": 17808,
      "componentType": 5125,
      "count": 2880,
      "max": [
        870
      ],
      "min": [
        0
      ],
      "type": "SCALAR"
    },
    {
      "bufferView": 2,
      "byteOffset": 53928,
      "componentType": 5126,
      "count": 368,
      "max": [
        0.3141930103302002,
        0.078603200614452362,
        0.74772399663925171
      ],
      "min": [
        -0.31417500972747803,
        -0.14423699676990509,
        0.21073299646377563
      ],
      "type": "VEC3"
    },
    {
      "bufferView": 2,
      "byteOffset": 58344,
      "componentType": 5126,
      "count": 368,
      "max": [
        0.99960911273956299,
        0.97529447078704834,
        0.99025237560272217
      ],
      "min": [
        -0.99961662292480469,
        -0.98107576370239258,
        -0.96610349416732788
      ],
      "type": "VEC3"
    },
    {
      "bufferView": 3,
      "byteOffset": 35952,
      "componentType": 5126,
      "count": 368,
      "max": [
        0.9989970326423645,
        0.99907952547073364,
        0.99993711709976196,
        1
      ],
      "min": [
        -0.99886596202850342,
        -0.99941003322601318,
        -0.9999198317527771,
        -1
      ],
      "type": "VEC4"
    },
    {
      "bufferView": 1,
      "byteOffset": 17976,
      "componentType": 5126,
      "count": 368,
      "max": [
        0.69999897480010986,
        0.8825870156288147
      ],
      "min": [
        0.14674299955368042,
        0.25748300552368164
      ],
      "type": "VEC2"
    },
    {
      "bufferView": 0,
      "byteOffset": 29328,
      "componentType": 5125,
      "count": 1092,
      "max": [
        367
      ],
      "min": [
        0
      ],
      "type": "SCALAR"
    },
    {
      "bufferView": 2,
      "byteOffset": 62760,
      "componentType": 5126,
      "count": 1147,
      "max": [
        0.32848900556564331,
        0.16413600742816925,
        0.83689600229263306
      ],
      "min": [
        -0.3283270001411438,
        -0.14980199933052063,
        -0.99544697999954224
      ],
      "type": "VEC3"
    },
    {
      "bufferView": 2,
      "byteOffset": 76524,
      "componentType": 5126,
      "count": 1147,
      "max": [
        0.98154687881469727,
        0.99993997812271118,
        1
      ],
      "min": [
        -0.98155778646469116,
        -1,
        -0.98529714345932007
      ],
      "type": "VEC3"
    },
    {
      "bufferView": 3,
      "byteOffset": 41840,
      "componentType": 5126,
      "count": 1147,
      "max": [
        1,
        0.9966844916343689,
        0.99996852874755859,
        1
      ],
      "min": [
        -1,
        -0.99895930290222168,
        -0.99996870756149292,
        -1
      ],
      "type": "VEC4"
    },
    {
      "bufferView": 1,
      "byteOffset": 20920,
      "componentType": 5126,
      "count": 1147,
      "max": [
        0.49942401051521301,
        0.98960602283477783
      ],
      "min": [
        0.013496500439941883,
        0.39396300911903381
      ],
      "type": "VEC2"
    },
    {
      "bufferView": 0,
      "byteOffset": 33696,
      "componentType": 5125,
      "count": 4128,
      "max": [
        1146
      ],
      "min": [
        0
      ],
      "type": "SCALAR"
    }
  ],
  "asset": {
    "extras": {
      "author": "Hassan Bassassi (https://sketchfab.com/alone5)",
      "license": "CC-BY-4.0 (http://creativecommons.org/licenses/by/4.0/)",
      "source": "https://sketchfab.com/models/6e02774161ec465fb5cf4c78f4e41adf",
      "title": "RHS-X"
    },
    "generator": "Sketchfab-4.1.5",
    "version": "2.0"
  },
  "bufferViews": [
    {
      "buffer": 0,
      "byteLength": 50208,
      "byteOffset": 0,
      "name": "floatBufferViews",
      "target": 34963
    },
    {
      "buffer": 0,
      "byteLength": 30096,
      "byteOffset": 50208,
      "byteStride": 8,
      "name": "floatBufferViews",
      "target": 34962
    },
    {
      "buffer": 0,
      "byteLength": 90288,
      "byteOffset": 80304,
      "byteStride": 12,
      "name": "floatBufferViews",
      "target": 34962
    },
    {
      "buffer": 0,
      "byteLength": 60192,
      "byteOffset": 170592,
      "byteStride": 16,
      "name": "floatBufferViews",
      "target": 34962
    }
  ],
  "buffers": [
    {
      "byteLength": 230784,
      "uri": "scene.bin"
    }
  ],
  "images": [
    {
      "uri": "textures/material_metallicRoughness.png"
    },
    {
      "uri": "textures/material_normal.jpeg"
    },
    {
      "uri": "textures/material_emissive.jpeg"
    },
    {
      "uri": "textures/material_baseColor.jpeg"
    }
  ],
  "materials": [
    {
      "doubleSided": true,
      "emissiveFactor": [
        1,
        1,
        1
      ],
      "emissiveTexture": {
        "index": 2,
        "texCoord": 0
      },
      "name": "material",
      "normalTexture": {
        "index": 1,
        "scale": 1,
        "texCoord": 0
      },
      "occlusionTexture": {
        "index": 0,
        "strength": 1,
        "texCoord": 0
      },
      "pbrMetallicRoughness": {
        "baseColorFactor": [
          1,
          1,
          1,
          1
        ],
        "baseColorTexture": {
          "index": 3,
          "texCoord": 0
        },
        "metallicFactor": 1,
        "metallicRoughnessTexture": {
          "index": 0,
          "texCoord": 0
        },
        "roughnessFactor": 1
      }
    }
  ],
  "meshes": [
    {
      "name": "defaultMaterial",
      "primitives": [
        {
          "attributes": {
            "NORMAL": 1,
            "POSITION": 0,
            "TANGENT": 2,
            "TEXCOORD_0": 3
          },
          "indices": 4,
          "material": 0,
          "mode": 4
        }
      ]
    },
    {
      "name": "defaultMaterial",
      "primitives": [
        {
          "attributes": {
            "NORMAL": 6,
            "POSITION": 5,
            "TANGENT": 7,
            "TEXCOORD_0": 8
          },
          "indices": 9,
          "material": 0,
          "mode": 4
        }
      ]
    },
    {
      "name": "defaultMaterial",
      "primitives": [
        {
          "attributes": {
            "NORMAL": 11,
            "POSITION": 10,
            "TANGENT": 12,
            "TEXCOORD_0": 13
          },
          "indices": 14,
          "material": 0,
          "mode": 4
        }
      ]
    },
    {
      "name": "defaultMaterial",
      "primitives": [
        {
          "attributes": {
            "NORMAL": 16,
            "POSITION": 15,
            "TANGENT": 17,
            "TEXCOORD_0": 18
          },
          "indices": 19,
          "material": 0,
          "mode": 4
        }
      ]
    }
  ],
  "nodes": [
    {
      "children": [
        1
      ],
      "name": "RootNode (gltf orientation matrix)",
      "rotation": [
        -0.70710678118654746,
        -0,
        -0,
        0.70710678118654757
      ]
    },
    {
      "children": [
        2
      ],
      "name": "RootNode (model correction matrix)"
    },
    {
      "children": [
        3,
        5,
        7,
        9
      ],
      "matrix": [
        1,
        0,
        0,
        0,
        0,
        -4.3711390063094768e-08,
        0.999999999999999,
        0,
        0,
        -0.999999999999999,
        -4.3711390063094768e-08,
        0,
        0,
        0,
        0,
        1
      ],
      "name": "Collada visual scene group"
    },
    {
      "children": [
        4
      ],
      "name": "RHS_1"
    },
    {
      "mesh": 0,
      "name": "defaultMaterial"
    },
    {
      "children": [
        6
      ],
      "name": "RHS_2"
    },
    {
      "mesh": 1,
      "name": "defaultMaterial"
    },
    {
      "children": [
        8
      ],
      "name": "RHS_3"
    },
    {
      "mesh": 2,
      "name": "defaultMaterial"
    },
    {
      "children": [
        10
      ],
      "name": "RHS_4"
    },
    {
      "mesh": 3,
      "name": "defaultMaterial"
    }
  ],
  "samplers": [
    {
      "magFilter": 9729,
      "minFilter": 9987,
      "wrapS": 10497,
      "wrapT": 10497
    }
  ],
  "scene": 0,
  "scenes": [
    {
      "name": "OSG_Scene",
      "nodes": [
        0
      ]
    }
  ],
  "textures": [
    {
      "sampler": 0,
      "source": 0
    },
    {
      "sampler": 0,
      "source": 1
    },
    {
      "sampler": 0,
      "source": 2
    },
    {
      "sampler": 0,
      "source": 3
    }
  ]
}

